<?xml version="1.0" encoding="utf-8"?>
<!-- Generator: Adobe Illustrator 23.0.0, SVG Export Plug-In . SVG Version: 6.00 Build 0)  -->
<svg version="1.1" id="Layer_1" xmlns="http://www.w3.org/2000/svg" xmlns:xlink="http://www.w3.org/1999/xlink" x="0px" y="0px"
	 viewBox="0 0 1500 1500" style="enable-background:new 0 0 1500 1500;" xml:space="preserve">
<style type="text/css">
	.st0{fill:url(#SVGID_1_);}
	.st1{clip-path:url(#SVGID_4_);}
	.st2{clip-path:url(#SVGID_5_);fill:url(#SVGID_6_);}
	.st3{fill:url(#SVGID_7_);}
	.st4{fill:url(#SVGID_8_);}
	.st5{fill:url(#SVGID_9_);}
	.st6{fill:url(#SVGID_10_);}
	.st7{fill:url(#SVGID_11_);}
	.st8{fill:url(#SVGID_12_);}
	.st9{fill:url(#SVGID_13_);}
	.st10{clip-path:url(#SVGID_16_);}
	.st11{clip-path:url(#SVGID_17_);fill:url(#SVGID_18_);}
	.st12{fill:url(#SVGID_19_);}
	.st13{fill:url(#SVGID_20_);}
	.st14{fill:url(#SVGID_21_);}
	.st15{clip-path:url(#SVGID_24_);}
	.st16{clip-path:url(#SVGID_25_);fill:url(#SVGID_26_);}
	.st17{opacity:0.6;fill:url(#SVGID_27_);enable-background:new    ;}
	.st18{opacity:0.6;fill:url(#SVGID_28_);enable-background:new    ;}
</style>
<g>
	
		<linearGradient id="SVGID_1_" gradientUnits="userSpaceOnUse" x1="926.5016" y1="956.1721" x2="820.0004" y2="194.3632" gradientTransform="matrix(1 0 0 -1 0 1502)">
		<stop  offset="0" style="stop-color:#936627"/>
		<stop  offset="1" style="stop-color:#FDF5A7"/>
	</linearGradient>
	<path class="st0" d="M1409.66,1261.58l-6.94-12.44L772.05,116.11c0,0,0,0-0.06,0.03c-0.67,1.24-8.51,15.25-21.15,37.83
		c-0.59,1.15-1.29,2.3-1.97,3.54c-16.85,30.19-41.51,74.28-69,123.48c-3.4,6.09-6.85,12.27-10.33,18.48l-3.57,6.43l-2.89,5.11
		c-6.46,11.63-13.06,23.42-19.66,35.3l-6.63,11.88c-1.1,1.99-2.22,3.96-3.31,5.95c-3.29,5.84-6.52,11.65-9.8,17.44
		c-10.05,18-20.05,35.89-29.8,53.38c-1.83,3.29-3.65,6.6-5.53,9.83c-2.42,4.35-4.86,8.68-7.19,12.97c-1.07,1.88-2.13,3.74-3.15,5.62
		c-10.42,18.59-20.39,36.42-29.63,52.99c-1.88,3.31-3.71,6.54-5.5,9.8c-1.32,2.39-2.64,4.72-3.96,7.08
		c-4.8,8.65-9.41,16.82-13.68,24.49c-1.07,1.91-2.13,3.79-3.2,5.67c-1.97,3.48-3.82,6.91-5.67,10.17
		c-2.78,4.97-5.39,9.72-7.83,14.04c-0.81,1.38-1.54,2.67-2.25,3.99c-1.1,2.05-2.22,3.99-3.29,5.87c-0.42,0.73-0.84,1.46-1.18,2.16
		c-0.59,1.1-1.18,2.13-1.8,3.15c-1.32,2.42-2.58,4.69-3.73,6.71c-1.26,2.22-2.39,4.21-3.37,5.95c-0.56,1.01-1.07,1.97-1.57,2.81
		c-0.31,0.51-0.56,1.01-0.81,1.49c-0.06,0-0.06,0-0.06,0.06c-0.22,0.42-0.39,0.76-0.59,1.1c-0.17,0.31-0.39,0.65-0.51,0.93
		l-0.06,0.06c-0.06,0.06-0.08,0.08-0.08,0.14c-0.14,0.22-0.25,0.42-0.39,0.65c0,0.06,0,0.06,0,0.06c-0.14,0.22-0.22,0.39-0.34,0.59
		c-0.08,0.22-0.17,0.39-0.25,0.51c-0.06,0.14-0.14,0.22-0.17,0.34c0,0.06,0,0.06,0,0.06L349.35,872.45l-69.42,124.21h112.1
		c75.18,0,147.6-29.32,180.43-84.36l6.29-11.37l128.25-230.27l62.71-112.58l2.3-4.13l12.61,22.55
		c12.38,16.01,25.19,33.78,28.87,40.61c0.22,0.42,0.48,0.84,0.67,1.26c1.15,2.16,2.47,4.69,4.04,7.61c0.34,0.59,0.65,1.15,0.93,1.8
		c0.93,1.8,1.99,3.73,3.12,5.78c0,0,0,0,0,0.06c1.07,2.08,2.25,4.3,3.45,6.6c0.42,0.76,0.84,1.54,1.24,2.33
		c0.9,1.57,1.74,3.23,2.58,4.89c1.8,3.37,3.65,6.91,5.59,10.64c1.01,1.83,1.99,3.73,3.03,5.67c0.67,1.24,1.32,2.5,1.99,3.79
		c0.84,1.66,1.74,3.31,2.64,5.03c1.1,2.13,2.22,4.27,3.37,6.43c1.66,3.12,3.31,6.29,5.03,9.55c0.06,0.08,0.08,0.14,0.08,0.22
		c1.18,2.22,2.33,4.47,3.54,6.71c1.18,2.25,2.42,4.55,3.62,6.91c1.57,3.03,3.15,6.04,4.8,9.15c2.13,4.04,4.3,8.17,6.46,12.36
		c7.41,14.21,15.19,28.98,23.08,43.98c1.15,2.16,2.25,4.3,3.4,6.46c7.27,13.96,14.63,28,21.88,41.76c0.06,0.14,0.08,0.25,0.17,0.34
		c0.25,0.48,0.51,0.93,0.76,1.46l198.43,359.79c32.83,52.57,105.25,84.42,180.43,84.42h112.08L1409.66,1261.58z"/>
	<g>
		<g>
			<defs>
				<polygon id="SVGID_2_" points="-1520,-1168.58 -1517.19,-1168.58 -1520,-1165.77 				"/>
			</defs>
			<defs>
				<polygon id="SVGID_3_" points="-1525.62,-1174.19 -1528.42,-1174.19 -1525.62,-1177 				"/>
			</defs>
			<clipPath id="SVGID_4_">
				<use xlink:href="#SVGID_2_"  style="overflow:visible;"/>
			</clipPath>
			<clipPath id="SVGID_5_" class="st1">
				<use xlink:href="#SVGID_3_"  style="overflow:visible;"/>
			</clipPath>
			
				<linearGradient id="SVGID_6_" gradientUnits="userSpaceOnUse" x1="661.37" y1="1028.1759" x2="535.3065" y2="725.334" gradientTransform="matrix(1 0 0 -1 0 1502)">
				<stop  offset="0" style="stop-color:#FFFFFF"/>
				<stop  offset="1" style="stop-color:#010101"/>
			</linearGradient>
			<path class="st2" d="M859.27,391.73l-90.28,165.46l-61.92,113.48L578.81,900.95l-6.29,11.37
				c-32.83,55.04-105.25,84.36-180.43,84.36h-112.1l69.42-124.21l138.75-248.25c0,0,0,0,0-0.06c0.06-0.14,0.14-0.22,0.17-0.34
				c0.08-0.14,0.17-0.31,0.25-0.51c0.14-0.22,0.22-0.39,0.34-0.59c0,0,0,0,0-0.06c0.14-0.22,0.25-0.42,0.39-0.65
				c0-0.06,0.06-0.08,0.08-0.14l0.06-0.06c0.31-0.59,0.67-1.26,1.1-2.05c0-0.06,0-0.06,0.06-0.06c0.25-0.48,0.51-0.98,0.81-1.49
				c0.51-0.84,1.01-1.8,1.57-2.81c0.98-1.74,2.08-3.73,3.37-5.95c1.1-2.05,2.39-4.3,3.73-6.71c0.56-1.01,1.15-2.05,1.8-3.15
				c0.34-0.73,0.76-1.46,1.18-2.16c1.01-1.88,2.13-3.82,3.29-5.87c0.73-1.32,1.46-2.64,2.25-3.99c2.39-4.35,5.03-9.07,7.83-14.04
				c1.83-3.29,3.71-6.68,5.67-10.17c1.07-1.88,2.08-3.73,3.2-5.67c4.27-7.67,8.85-15.84,13.68-24.49c1.32-2.33,2.58-4.69,3.96-7.08
				c1.8-3.23,3.62-6.46,5.5-9.8c9.24-16.57,19.21-34.4,29.63-52.99c1.01-1.88,2.08-3.73,3.15-5.62c2.33-4.3,4.77-8.65,7.19-12.97
				c1.83-3.29,3.65-6.54,5.53-9.83c9.74-17.5,19.74-35.38,29.8-53.38c3.29-5.78,6.52-11.63,9.8-17.44c1.1-1.99,2.22-3.96,3.31-5.95
				l6.63-11.88c6.6-11.88,13.2-23.67,19.66-35.3l2.89-5.11L859.27,391.73z"/>
		</g>
	</g>
	
		<linearGradient id="SVGID_7_" gradientUnits="userSpaceOnUse" x1="661.37" y1="1028.1759" x2="535.3065" y2="725.334" gradientTransform="matrix(1 0 0 -1 0 1502)">
		<stop  offset="0" style="stop-color:#936627"/>
		<stop  offset="1" style="stop-color:#FDF5A7"/>
	</linearGradient>
	<path class="st3" d="M859.27,391.73l-90.28,165.46l-61.92,113.48L578.81,900.95l-6.29,11.37
		c-32.83,55.04-105.25,84.36-180.43,84.36h-112.1l69.42-124.21l138.75-248.25c0,0,0,0,0-0.06c0.06-0.14,0.14-0.22,0.17-0.34
		c0.08-0.14,0.17-0.31,0.25-0.51c0.14-0.22,0.22-0.39,0.34-0.59c0,0,0,0,0-0.06c0.14-0.22,0.25-0.42,0.39-0.65
		c0-0.06,0.06-0.08,0.08-0.14l0.06-0.06c0.31-0.59,0.67-1.26,1.1-2.05c0-0.06,0-0.06,0.06-0.06c0.25-0.48,0.51-0.98,0.81-1.49
		c0.51-0.84,1.01-1.8,1.57-2.81c0.98-1.74,2.08-3.73,3.37-5.95c1.1-2.05,2.39-4.3,3.73-6.71c0.56-1.01,1.15-2.05,1.8-3.15
		c0.34-0.73,0.76-1.46,1.18-2.16c1.01-1.88,2.13-3.82,3.29-5.87c0.73-1.32,1.46-2.64,2.25-3.99c2.39-4.35,5.03-9.07,7.83-14.04
		c1.83-3.29,3.71-6.68,5.67-10.17c1.07-1.88,2.08-3.73,3.2-5.67c4.27-7.67,8.85-15.84,13.68-24.49c1.32-2.33,2.58-4.69,3.96-7.08
		c1.8-3.23,3.62-6.46,5.5-9.8c9.24-16.57,19.21-34.4,29.63-52.99c1.01-1.88,2.08-3.73,3.15-5.62c2.33-4.3,4.77-8.65,7.19-12.97
		c1.83-3.29,3.65-6.54,5.53-9.83c9.74-17.5,19.74-35.38,29.8-53.38c3.29-5.78,6.52-11.63,9.8-17.44c1.1-1.99,2.22-3.96,3.31-5.95
		l6.63-11.88c6.6-11.88,13.2-23.67,19.66-35.3l2.89-5.11L859.27,391.73z"/>
	
		<linearGradient id="SVGID_8_" gradientUnits="userSpaceOnUse" x1="1164.3914" y1="229.2223" x2="1158.8114" y2="219.25" gradientTransform="matrix(1 0 0 -1 0 1502)">
		<stop  offset="0" style="stop-color:#936627"/>
		<stop  offset="1" style="stop-color:#FDF5A7"/>
	</linearGradient>
	<path class="st4" d="M1172.39,1284.3c-0.06-0.14-0.14-0.22-0.17-0.37c-0.56-1.04-1.12-2.05-1.68-3.09
		c-7.81-0.9-15.59-1.94-23.39-3.06c3.51,0.9,7.02,1.8,10.53,2.7C1159.64,1280.99,1171.35,1282.39,1172.39,1284.3z"/>
	
		<linearGradient id="SVGID_9_" gradientUnits="userSpaceOnUse" x1="601.5851" y1="596.1686" x2="600.9328" y2="595.0026" gradientTransform="matrix(1 0 0 -1 0 1502)">
		<stop  offset="0" style="stop-color:#936627"/>
		<stop  offset="1" style="stop-color:#FDF5A7"/>
	</linearGradient>
	<path class="st5" d="M600.49,906.51c-0.45-0.11-0.9-0.22-1.38-0.37c1.32,0.34,2.67,0.7,3.99,1.07
		C602.24,906.99,601.36,906.76,600.49,906.51z"/>
	
		<linearGradient id="SVGID_10_" gradientUnits="userSpaceOnUse" x1="588.489" y1="600.0317" x2="587.5286" y2="598.315" gradientTransform="matrix(1 0 0 -1 0 1502)">
		<stop  offset="0" style="stop-color:#936627"/>
		<stop  offset="1" style="stop-color:#FDF5A7"/>
	</linearGradient>
	<path class="st6" d="M584.94,902.49c1.91,0.48,3.79,0.98,5.7,1.46C588.73,903.48,586.82,902.97,584.94,902.49z"/>
	
		<linearGradient id="SVGID_11_" gradientUnits="userSpaceOnUse" x1="299.0653" y1="698.0973" x2="1568.5648" y2="263.9407" gradientTransform="matrix(1 0 0 -1 0 1502)">
		<stop  offset="0" style="stop-color:#936627"/>
		<stop  offset="1" style="stop-color:#FDF5A7"/>
	</linearGradient>
	<path class="st7" d="M590.61,903.95c2.84,0.73,5.64,1.46,8.51,2.22C596.28,905.41,593.45,904.68,590.61,903.95z"/>
	
		<linearGradient id="SVGID_12_" gradientUnits="userSpaceOnUse" x1="489.6592" y1="881.5936" x2="490.0663" y2="881.1295" gradientTransform="matrix(1 0 0 -1 0 1502)">
		<stop  offset="0" style="stop-color:#936627"/>
		<stop  offset="1" style="stop-color:#FDF5A7"/>
	</linearGradient>
	<path class="st8" d="M490.52,619.82c0-0.06,0-0.06,0.06-0.06c-0.22,0.39-0.42,0.76-0.65,1.15c-0.17,0.31-0.39,0.65-0.51,0.93
		C489.71,621.28,490.1,620.6,490.52,619.82z"/>
	
		<linearGradient id="SVGID_13_" gradientUnits="userSpaceOnUse" x1="458.6768" y1="1331.0427" x2="1086.0906" y2="615.2417" gradientTransform="matrix(1 0 0 -1 0 1502)">
		<stop  offset="0" style="stop-color:#936627"/>
		<stop  offset="1" style="stop-color:#FDF5A7"/>
	</linearGradient>
	<path class="st9" d="M1409.71,1261.58h-0.06c-0.51,0.17-1.07,0.34-1.57,0.48c-82.79,24.57-156.5,34.85-233.9,25.89
		c-11.74-21.4-221.29-405.59-255.21-470.07c-0.25-0.51-0.51-0.98-0.76-1.46c-0.08-0.08-0.14-0.22-0.17-0.34
		c-7.25-13.76-14.6-27.8-21.88-41.76c-1.15-2.16-2.25-4.3-3.4-6.46c-7.83-15-15.61-29.8-23.08-43.98
		c-2.16-4.18-4.35-8.31-6.46-12.36c-1.63-3.12-3.2-6.12-4.8-9.15c-1.18-2.33-2.42-4.63-3.62-6.91c-1.18-2.25-2.33-4.52-3.54-6.71
		c0-0.08-0.06-0.14-0.08-0.22c-1.71-3.23-3.37-6.43-5.03-9.55c-1.15-2.16-2.25-4.3-3.37-6.43c-0.9-1.71-1.8-3.37-2.64-5.03
		c-0.67-1.26-1.32-2.56-1.99-3.79c-1.01-1.91-1.99-3.82-3.03-5.67c-1.91-3.73-3.79-7.27-5.59-10.64c-0.84-1.66-1.71-3.31-2.58-4.89
		c-0.39-0.81-0.81-1.57-1.24-2.33c-1.18-2.33-2.33-4.52-3.45-6.6c0-0.06,0-0.06,0-0.06c-1.1-2.05-2.13-3.99-3.12-5.78
		c-0.31-0.65-0.59-1.18-0.93-1.8c-1.54-2.89-2.89-5.45-4.04-7.61c-0.22-0.42-0.48-0.84-0.67-1.26c-3.65-6.82-16.48-24.6-28.87-40.61
		c-5.28-6.77-10.47-13.28-14.88-18.42l-0.76-0.9c-3.45-4.07-6.35-7.27-8.31-9.07c-16.68-15.16-37.49-25.08-58.86-31.76
		c-27.32-8.48-56.73-10.31-84.44-2.47c-52.18,14.77-99.36,59.2-126.79,105.9c0.25-0.48,0.51-0.98,0.81-1.49
		c0.51-0.84,1.01-1.8,1.57-2.81c0.98-1.74,2.08-3.73,3.37-5.95c1.1-2.05,2.39-4.3,3.74-6.71c0.56-1.01,1.15-2.05,1.8-3.15
		c0.34-0.73,0.76-1.46,1.18-2.16c1.01-1.88,2.13-3.82,3.29-5.87c0.73-1.32,1.46-2.64,2.25-3.99c2.39-4.35,5.03-9.07,7.83-14.04
		c1.83-3.29,3.71-6.68,5.67-10.17c1.07-1.88,2.08-3.73,3.2-5.67c4.27-7.67,8.85-15.84,13.68-24.49c1.32-2.33,2.58-4.69,3.96-7.08
		c1.8-3.23,3.62-6.46,5.5-9.8c9.24-16.57,19.21-34.4,29.63-52.99c1.01-1.88,2.08-3.73,3.15-5.62c2.33-4.3,4.77-8.65,7.19-12.97
		c1.83-3.29,3.65-6.54,5.53-9.83c9.74-17.5,19.74-35.38,29.8-53.38c3.29-5.78,6.52-11.63,9.8-17.44c1.1-1.99,2.22-3.96,3.31-5.95
		l6.63-11.88c6.6-11.88,13.2-23.67,19.66-35.3l2.89-5.11l3.62-6.43c3.48-6.21,6.91-12.38,10.31-18.48
		c27.49-49.2,52.15-93.29,69-123.48c0.67-1.24,1.35-2.39,1.97-3.54c12.64-22.61,20.47-36.62,21.15-37.83
		c0.06-0.03,0.06-0.03,0.06-0.03l324.86,581.25l305.82,551.76L1409.71,1261.58z"/>
	<g>
		<g>
			<defs>
				<polygon id="SVGID_14_" points="-1520,-1168.58 -1517.19,-1168.58 -1520,-1165.77 				"/>
			</defs>
			<defs>
				<polygon id="SVGID_15_" points="-1525.62,-1174.19 -1528.42,-1174.19 -1525.62,-1177 				"/>
			</defs>
			<clipPath id="SVGID_16_">
				<use xlink:href="#SVGID_14_"  style="overflow:visible;"/>
			</clipPath>
			<clipPath id="SVGID_17_" class="st10">
				<use xlink:href="#SVGID_15_"  style="overflow:visible;"/>
			</clipPath>
			
				<linearGradient id="SVGID_18_" gradientUnits="userSpaceOnUse" x1="1257.595" y1="245.6146" x2="1014.1619" y2="800.5836" gradientTransform="matrix(1 0 0 -1 0 1502)">
				<stop  offset="0" style="stop-color:#FFFFFF"/>
				<stop  offset="1" style="stop-color:#010101"/>
			</linearGradient>
			<path class="st11" d="M1409.94,1262.03c-83.43,24.91-160.04,29.74-237.91,20.72c-11.82-21.57-224.6-411.66-255.97-471.5
				c-0.08-0.08-0.14-0.22-0.17-0.34c-7.25-13.76-14.6-27.8-21.88-41.76c3.48-0.76,170.6-37.21,200.73-76.92l305.82,551.73
				L1409.94,1262.03z"/>
		</g>
	</g>
	
		<linearGradient id="SVGID_19_" gradientUnits="userSpaceOnUse" x1="1257.595" y1="245.6146" x2="1014.1619" y2="800.5836" gradientTransform="matrix(1 0 0 -1 0 1502)">
		<stop  offset="0" style="stop-color:#936627"/>
		<stop  offset="1" style="stop-color:#FDF5A7"/>
	</linearGradient>
	<path class="st12" d="M1409.94,1262.03c-83.43,24.91-160.04,29.74-237.91,20.72c-11.82-21.57-224.6-411.66-255.97-471.5
		c-0.08-0.08-0.14-0.22-0.17-0.34c-7.25-13.76-14.6-27.8-21.88-41.76c3.48-0.76,170.6-37.21,200.73-76.92l305.82,551.73
		L1409.94,1262.03z"/>
	
		<linearGradient id="SVGID_20_" gradientUnits="userSpaceOnUse" x1="-1247.5734" y1="1994.7351" x2="911.0983" y2="1767.5062" gradientTransform="matrix(0.9203 0.3911 0.3911 -0.9203 274.6276 2931.958)">
		<stop  offset="0" style="stop-color:#936627"/>
		<stop  offset="1" style="stop-color:#FDF5A7"/>
	</linearGradient>
	<path class="st13" d="M1147.03,1177.7c-6.94-4.04-13.7-8.34-20.33-12.97c-12.69-8.87-25.41-17.69-38.05-26.65
		c-77.62-55.15-152.82-113.68-226.06-174.48c-39.06-32.43-78.27-64.7-118.28-95.96c-1.26-0.98-2.53-1.97-3.79-2.95
		c-2.7-2.11-5.39-4.16-8.09-6.21c-1.8-1.38-3.62-2.75-5.42-4.16c-116.18-87.95-217.97-133.62-297.62-156.92
		c-4.38-1.04-8.76-2.02-13.2-2.95c-54.2-11.23-113.79-23.56-169.42-17.89l37.12,363.67c397.62-99.75,715.12,407.11,1126.27,223.25
		l0.11,0.06l-0.06-0.59c-45.61-5.11-90.2-16.93-133.5-31.87C1232.65,1215.92,1187.44,1201.29,1147.03,1177.7z"/>
	
		<linearGradient id="SVGID_21_" gradientUnits="userSpaceOnUse" x1="-1002.4797" y1="2052.4495" x2="-123.8614" y2="1996.9047" gradientTransform="matrix(0.9203 0.3911 0.3911 -0.9203 274.6276 2931.958)">
		<stop  offset="0" style="stop-color:#936627"/>
		<stop  offset="1" style="stop-color:#FDF5A7"/>
	</linearGradient>
	<path class="st14" d="M1276.72,1231.11c36.56,12.58,74.02,22.97,112.24,29.01c-38.22-1.46-76.19-7.3-113.62-15.42
		c-45.58-9.8-92.17-18.98-135.08-37.6c-7.39-3.2-14.63-6.66-21.76-10.47c-13.68-7.27-27.35-14.52-40.92-21.9
		c-83.63-45.52-165.24-94.72-245.24-146.39c-42.6-27.55-85.4-54.93-128.84-81.24c-1.38-0.81-2.75-1.66-4.13-2.44
		c-2.89-1.77-5.81-3.48-8.73-5.22c-1.97-1.15-3.9-2.3-5.9-3.48c-125.78-73.49-232.3-106.8-314.16-120.47
		c-4.47-0.51-8.93-0.95-13.42-1.29c-31.2-2.67-64.17-5.5-96.86-5.22l-13.54-132.38c55.6-5.7,115.19,6.63,169.42,17.86
		c4.38,0.95,8.79,1.91,13.14,2.95c79.67,23.28,181.5,68.97,297.64,156.9c1.77,1.4,3.59,2.78,5.42,4.18c2.67,2.05,5.34,4.1,8.06,6.18
		c1.29,1.04,2.53,1.99,3.79,2.95c39.99,31.28,79.19,63.52,118.28,95.99c73.27,60.8,148.44,119.32,226.06,174.45
		c12.64,8.96,25.36,17.8,38.05,26.65c6.63,4.63,13.37,8.96,20.33,13C1187.41,1201.32,1232.63,1215.92,1276.72,1231.11z"/>
	<g>
		<g>
			<defs>
				<polygon id="SVGID_22_" points="-1520,-1168.58 -1517.19,-1168.58 -1520,-1165.77 				"/>
			</defs>
			<defs>
				<polygon id="SVGID_23_" points="-1525.62,-1174.19 -1528.42,-1174.19 -1525.62,-1177 				"/>
			</defs>
			<clipPath id="SVGID_24_">
				<use xlink:href="#SVGID_22_"  style="overflow:visible;"/>
			</clipPath>
			<clipPath id="SVGID_25_" class="st15">
				<use xlink:href="#SVGID_23_"  style="overflow:visible;"/>
			</clipPath>
			
				<linearGradient id="SVGID_26_" gradientUnits="userSpaceOnUse" x1="1497.8992" y1="314.4301" x2="485.0452" y2="615.8228" gradientTransform="matrix(1 0 0 -1 0 1502)">
				<stop  offset="0" style="stop-color:#010101"/>
				<stop  offset="1" style="stop-color:#FFFFFF"/>
			</linearGradient>
			<path class="st16" d="M1386.91,1264.95c-38.22-1.46-76.19-7.3-113.62-15.42c-45.58-9.8-92.17-18.98-135.08-37.6
				c-7.39-3.2-14.63-6.66-21.76-10.47c-13.68-7.27-27.35-14.52-40.92-21.9c-83.63-45.55-165.24-94.72-245.24-146.39
				c-42.6-27.55-85.4-54.93-128.84-81.24c-1.38-0.81-2.72-1.66-4.13-2.44c-2.89-1.77-5.81-3.48-8.73-5.22
				c-1.97-1.15-3.9-2.3-5.9-3.45C556.91,867.31,450.39,834,368.53,820.32c-4.47-0.51-8.93-0.95-13.42-1.29
				c-31.2-2.67-64.17-5.5-96.86-5.22l-13.54-132.38c0.79-0.08,1.63-0.17,2.44-0.2l13.06,127.91c32.69-0.28,65.63,2.53,96.86,5.22
				c4.47,0.34,8.96,0.79,13.42,1.29c81.86,13.68,188.38,46.95,314.16,120.47c1.97,1.15,3.9,2.3,5.9,3.48
				c2.92,1.71,5.84,3.45,8.73,5.22c1.38,0.81,2.72,1.66,4.13,2.44c43.44,26.31,86.24,53.69,128.84,81.24
				c80.01,51.67,161.59,100.87,245.24,146.39c13.56,7.39,27.24,14.63,40.92,21.9c7.13,3.85,14.35,7.27,21.76,10.47
				c42.91,18.62,89.5,27.77,135.08,37.6c23.56,5.11,47.35,9.32,71.27,12.08C1359.9,1260.12,1373.35,1262.76,1386.91,1264.95z"/>
		</g>
	</g>
	
		<linearGradient id="SVGID_27_" gradientUnits="userSpaceOnUse" x1="1497.8992" y1="314.4301" x2="485.0452" y2="615.8228" gradientTransform="matrix(1 0 0 -1 0 1502)">
		<stop  offset="0" style="stop-color:#936627"/>
		<stop  offset="1" style="stop-color:#FDF5A7"/>
	</linearGradient>
	<path class="st17" d="M1386.91,1264.95c-38.22-1.46-76.19-7.3-113.62-15.42c-45.58-9.8-92.17-18.98-135.08-37.6
		c-7.39-3.2-14.63-6.66-21.76-10.47c-13.68-7.27-27.35-14.52-40.92-21.9c-83.63-45.55-165.24-94.72-245.24-146.39
		c-42.6-27.55-85.4-54.93-128.84-81.24c-1.38-0.81-2.72-1.66-4.13-2.44c-2.89-1.77-5.81-3.48-8.73-5.22c-1.97-1.15-3.9-2.3-5.9-3.45
		C556.91,867.31,450.39,834,368.53,820.32c-4.47-0.51-8.93-0.95-13.42-1.29c-31.2-2.67-64.17-5.5-96.86-5.22l-13.54-132.38
		c0.79-0.08,1.63-0.17,2.44-0.2l13.06,127.91c32.69-0.28,65.63,2.53,96.86,5.22c4.47,0.34,8.96,0.79,13.42,1.29
		c81.86,13.68,188.38,46.95,314.16,120.47c1.97,1.15,3.9,2.3,5.9,3.48c2.92,1.71,5.84,3.45,8.73,5.22c1.38,0.81,2.72,1.66,4.13,2.44
		c43.44,26.31,86.24,53.69,128.84,81.24c80.01,51.67,161.59,100.87,245.24,146.39c13.56,7.39,27.24,14.63,40.92,21.9
		c7.13,3.85,14.35,7.27,21.76,10.47c42.91,18.62,89.5,27.77,135.08,37.6c23.56,5.11,47.35,9.32,71.27,12.08
		C1359.9,1260.12,1373.35,1262.76,1386.91,1264.95z"/>
	
		<linearGradient id="SVGID_28_" gradientUnits="userSpaceOnUse" x1="-865.8095" y1="2099.0791" x2="341.0296" y2="1972.8408" gradientTransform="matrix(0.9203 0.3911 0.3911 -0.9203 274.6276 2931.958)">
		<stop  offset="0" style="stop-color:#936627"/>
		<stop  offset="1" style="stop-color:#FDF5A7"/>
	</linearGradient>
	<path class="st18" d="M1410.33,1263.58l-0.14-0.06c-4.24,1.91-8.51,3.73-12.75,5.48c-44.54-5.28-88.01-16.88-130.33-31.48
		c-44.09-15.19-89.3-29.8-129.71-53.41c-6.94-4.02-13.7-8.34-20.33-12.97c-12.69-8.82-25.41-17.69-38-26.62
		c-77.68-55.15-152.85-113.62-226.09-174.48c-39.06-32.46-78.29-64.7-118.28-95.93c-1.24-1.01-2.5-1.97-3.79-2.95
		c-2.7-2.11-5.36-4.16-8.06-6.21c-1.83-1.4-3.59-2.78-5.45-4.13c-116.15-87.95-218-133.64-297.59-156.92
		c-4.38-1.07-8.82-2.02-13.2-2.92c-50.89-10.56-106.6-22.1-159.23-18.73l-0.56-5.62c55.6-5.7,115.19,6.68,169.39,17.89
		c4.44,0.93,8.79,1.91,13.2,2.92c79.59,23.31,181.41,69,297.59,156.92c1.83,1.38,3.59,2.78,5.45,4.13c2.67,2.05,5.34,4.1,8.06,6.21
		c1.29,0.98,2.53,1.99,3.79,2.95c40.02,31.23,79.19,63.52,118.28,95.93c73.27,60.85,148.44,119.32,226.09,174.5
		c12.64,8.96,25.33,17.75,38.05,26.65c6.6,4.58,13.4,8.93,20.33,12.95c40.35,23.59,85.62,38.22,129.66,53.38
		c43.33,14.97,87.9,26.76,133.53,31.87L1410.33,1263.58z"/>
</g>
</svg>
