<?xml version="1.0" encoding="utf-8"?>
<!-- Generator: Adobe Illustrator 23.0.0, SVG Export Plug-In . SVG Version: 6.00 Build 0)  -->
<svg version="1.1" id="Layer_1" xmlns="http://www.w3.org/2000/svg" xmlns:xlink="http://www.w3.org/1999/xlink" x="0px" y="0px"
	 viewBox="0 0 1500 1500" style="enable-background:new 0 0 1500 1500;" xml:space="preserve">
<style type="text/css">
	.st0{fill:url(#SVGID_1_);}
	.st1{filter:url(#Adobe_OpacityMaskFilter);}
	.st2{filter:url(#Adobe_OpacityMaskFilter_1_);}
	.st3{mask:url(#SVGID_2_);fill:url(#SVGID_3_);}
	.st4{fill:url(#SVGID_4_);}
	.st5{fill:url(#SVGID_5_);}
	.st6{fill:url(#SVGID_6_);}
	.st7{fill:url(#SVGID_7_);}
	.st8{fill:url(#SVGID_8_);}
	.st9{fill:url(#SVGID_9_);}
	.st10{fill:url(#SVGID_10_);}
	.st11{filter:url(#Adobe_OpacityMaskFilter_2_);}
	.st12{filter:url(#Adobe_OpacityMaskFilter_3_);}
	.st13{mask:url(#SVGID_11_);fill:url(#SVGID_12_);}
	.st14{fill:url(#SVGID_13_);}
	.st15{fill:url(#SVGID_14_);}
	.st16{fill:url(#SVGID_15_);}
	.st17{filter:url(#Adobe_OpacityMaskFilter_4_);}
	.st18{filter:url(#Adobe_OpacityMaskFilter_5_);}
	.st19{mask:url(#SVGID_16_);fill:url(#SVGID_17_);}
	.st20{opacity:0.6;fill:url(#SVGID_18_);}
	.st21{opacity:0.6;fill:url(#SVGID_19_);}
	.st22{fill:#0A163A;}
</style>
<g>
	<path d="M2083.86,621.62c-0.29-0.06-1.12-0.24-1.38-0.33v-4.04h0.25c0.05,0.75,0.11,0.83,0.86,0.83h3.36c0.74,0,0.8-0.06,0.84-0.79
		h0.26v2.37h-0.26c-0.05-0.69-0.09-0.77-0.84-0.77h-3.33c-0.47,0-0.63,0.04-0.72,0.21c-0.09,0.17-0.11,0.47-0.11,0.81
		c0,0.46,0.05,0.77,0.28,0.97c0.16,0.16,0.45,0.33,0.86,0.47L2083.86,621.62z"/>
	<path d="M2086.31,624c0,1.11-0.86,1.93-1.9,1.93c-1.38,0-2.04-1.05-2.04-1.94c0-1.25,0.94-1.97,1.88-1.97
		C2085.66,622.02,2086.31,623.16,2086.31,624L2086.31,624z M2086.03,623.88c0-0.5-0.51-0.97-1.48-0.97c-1.08,0-1.88,0.47-1.88,1.17
		c0,0.5,0.34,0.96,1.54,0.96c1.03,0,1.81-0.41,1.81-1.14V623.88z"/>
	<path d="M2085.39,627.89c0.47,0.29,0.93,0.64,0.93,1.05c0,0.32-0.23,0.53-0.44,0.53c-0.2,0-0.38-0.12-0.46-0.3
		c-0.04-0.11-0.02-0.18,0.02-0.23c0.12-0.13,0.18-0.23,0.18-0.38c0-0.22-0.25-0.49-0.71-0.67h-1.53c-0.56,0-0.62,0.04-0.67,0.72
		h-0.23v-2.08h0.23c0.05,0.53,0.11,0.6,0.67,0.6h1.78c0.54,0,0.58-0.05,0.65-0.53h0.19c0.07,0.43,0.17,0.84,0.35,1.29h-0.96V627.89z
		"/>
	<path d="M2083.24,633.02c-0.71-0.56-0.86-1.19-0.86-1.47c0-1.07,0.86-1.71,1.82-1.71c0.57,0,1.08,0.21,1.46,0.56
		c0.41,0.38,0.66,0.85,0.66,1.31v0.01c0,0.74-0.64,1.34-1.32,1.34c-0.16,0-0.24-0.05-0.28-0.21c-0.02-0.16-0.11-1.25-0.15-2.26
		c-1.11,0.02-1.58,0.67-1.58,1.27c0,0.36,0.13,0.69,0.43,1.01L2083.24,633.02z M2085.99,631.51c0-0.38-0.33-0.75-1.05-0.87
		c0,0.46,0,0.93,0.02,1.41c0.01,0.15,0.05,0.21,0.16,0.21C2085.58,632.25,2085.99,631.97,2085.99,631.51L2085.99,631.51z"/>
	<path d="M2082.48,638.39h0.23c0.05,0.49,0.09,0.59,0.7,0.59h1.38c0.64,0,0.99-0.25,0.99-0.75c0-0.28-0.16-0.6-0.43-0.93
		c-0.11,0.01-0.21,0.02-0.36,0.02h-1.65c-0.54,0-0.59,0.08-0.64,0.56h-0.23v-1.92h0.23c0.05,0.52,0.09,0.6,0.66,0.6h1.45
		c0.64,0,0.97-0.24,0.97-0.74c0-0.33-0.22-0.65-0.42-0.91h-2c-0.55,0-0.6,0.08-0.66,0.47h-0.23v-1.88h0.23
		c0.05,0.56,0.11,0.64,0.67,0.64h1.74c0.54,0,0.6-0.03,0.67-0.53h0.22c0.06,0.38,0.17,0.86,0.34,1.27h-0.7
		c0.12,0.19,0.28,0.38,0.44,0.64c0.14,0.23,0.23,0.45,0.23,0.72c0,0.42-0.26,0.79-0.7,0.97c0.19,0.26,0.35,0.5,0.49,0.71
		c0.12,0.19,0.22,0.41,0.22,0.66c0,0.69-0.47,1.14-1.34,1.14h-1.62c-0.57,0-0.59,0.06-0.66,0.56h-0.23V638.39z"/>
	<path d="M2082.48,643.1h0.23c0.05,0.54,0.11,0.61,0.7,0.61h1.72c0.54,0,0.58-0.03,0.67-0.54h0.21c0.08,0.47,0.18,0.91,0.33,1.3
		h-2.92c-0.59,0-0.64,0.06-0.7,0.62h-0.23V643.1z M2087.5,643.56c0.28,0,0.48,0.22,0.48,0.48s-0.21,0.46-0.48,0.46
		c-0.25,0-0.46-0.2-0.46-0.47C2087.04,643.78,2087.26,643.56,2087.5,643.56z"/>
	<path d="M2086.17,647.54c0.1,0.17,0.14,0.34,0.14,0.45c0,0.98-0.77,1.56-1.63,1.56c-1.27,0-2.1-1.05-2.31-2.17
		c0.01-0.26,0.08-0.49,0.14-0.62h-1.13c-0.63,0-0.68,0.06-0.74,0.74h-0.23v-2.13h0.23c0.05,0.56,0.11,0.64,0.67,0.64h3.87
		c0.54,0,0.56-0.05,0.63-0.57h0.21c0.06,0.37,0.21,0.88,0.38,1.32h-0.68L2086.17,647.54z M2083.13,646.77
		c-0.19,0.19-0.33,0.53-0.33,0.81c0,0.73,0.65,1.18,1.55,1.18c0.94,0,1.44-0.55,1.44-1.16c0-0.26-0.18-0.6-0.35-0.83H2083.13z"/>
	<path d="M2085.17,652.44c0.5-0.17,0.86-0.47,0.86-0.9c0-0.32-0.23-0.54-0.57-0.54c-0.35,0-0.56,0.33-0.71,0.72
		c-0.26,0.66-0.57,1.11-1.18,1.11c-0.8,0-1.2-0.74-1.2-1.46c0-0.45,0.16-0.86,0.28-1.01c0.11-0.06,0.71-0.14,1.05-0.15l0.04,0.24
		c-0.57,0.16-1.08,0.56-1.08,1.07c0,0.32,0.24,0.6,0.58,0.6c0.35,0,0.54-0.23,0.74-0.67c0.23-0.5,0.52-1.11,1.2-1.11
		c0.61,0,1.13,0.53,1.13,1.35c0,0.38-0.08,0.61-0.15,0.79c-0.19,0.08-0.71,0.18-0.92,0.2L2085.17,652.44z"/>
	<path d="M2082.68,657.66c-0.02-0.2-0.08-0.45-0.13-0.69c-0.06-0.24-0.12-0.47-0.17-0.66l0.05-0.06h0.61
		c-0.15-0.2-0.29-0.37-0.44-0.62c-0.14-0.26-0.22-0.45-0.22-0.69c0-0.61,0.36-1.1,1.28-1.1h1.63c0.47,0,0.51-0.07,0.56-0.29
		l0.06-0.23h0.21c0.01,0.18,0.04,0.41,0.06,0.66c0.03,0.25,0.07,0.5,0.09,0.66c-0.26-0.02-0.67-0.02-1.24-0.02h-1.15
		c-0.71,0-0.94,0.36-0.94,0.75c0,0.3,0.12,0.62,0.38,0.9h1.97c0.47,0,0.52-0.08,0.57-0.36l0.05-0.31h0.21
		c0.01,0.25,0.04,0.56,0.07,0.82c0.02,0.26,0.06,0.47,0.08,0.6h-2.82c-0.45,0-0.5,0.07-0.53,0.41l-0.01,0.23H2082.68z"/>
	<path d="M2082.48,662.9h0.23c0.05,0.49,0.09,0.59,0.7,0.59h1.38c0.64,0,0.99-0.25,0.99-0.75c0-0.28-0.16-0.6-0.43-0.93
		c-0.11,0.01-0.21,0.02-0.36,0.02h-1.65c-0.54,0-0.59,0.08-0.64,0.56h-0.23v-1.92h0.23c0.05,0.52,0.09,0.6,0.66,0.6h1.45
		c0.64,0,0.97-0.24,0.97-0.74c0-0.33-0.22-0.65-0.42-0.91h-2c-0.55,0-0.6,0.08-0.66,0.47h-0.23v-1.88h0.23
		c0.05,0.56,0.11,0.64,0.67,0.64h1.74c0.54,0,0.6-0.03,0.67-0.53h0.22c0.06,0.38,0.17,0.86,0.34,1.27h-0.7
		c0.12,0.19,0.28,0.38,0.44,0.64c0.14,0.23,0.23,0.45,0.23,0.72c0,0.42-0.26,0.79-0.7,0.97c0.19,0.26,0.35,0.5,0.49,0.71
		c0.12,0.19,0.22,0.41,0.22,0.66c0,0.69-0.47,1.14-1.34,1.14h-1.62c-0.57,0-0.59,0.06-0.66,0.56h-0.23V662.9z"/>
</g>
<g>
	<linearGradient id="SVGID_1_" gradientUnits="userSpaceOnUse" x1="789.1939" y1="530.4933" x2="751.2692" y2="801.7706">
		<stop  offset="0" style="stop-color:#936527"/>
		<stop  offset="1" style="stop-color:#FDF5A5"/>
	</linearGradient>
	<path class="st0" d="M961.24,785.37l-2.47-4.43L734.19,377.47c0,0,0,0-0.02,0.01c-0.24,0.44-3.03,5.43-7.53,13.47
		c-0.21,0.41-0.46,0.82-0.7,1.26c-6,10.75-14.78,26.45-24.57,43.97c-1.21,2.17-2.44,4.37-3.68,6.58l-1.27,2.29l-1.03,1.82
		c-2.3,4.14-4.65,8.34-7,12.57l-2.36,4.23c-0.39,0.71-0.79,1.41-1.18,2.12c-1.17,2.08-2.32,4.15-3.49,6.21
		c-3.58,6.41-7.14,12.78-10.61,19.01c-0.65,1.17-1.3,2.35-1.97,3.5c-0.86,1.55-1.73,3.09-2.56,4.62c-0.38,0.67-0.76,1.33-1.12,2
		c-3.71,6.62-7.26,12.97-10.55,18.87c-0.67,1.18-1.32,2.33-1.96,3.49c-0.47,0.85-0.94,1.68-1.41,2.52
		c-1.71,3.08-3.35,5.99-4.87,8.72c-0.38,0.68-0.76,1.35-1.14,2.02c-0.7,1.24-1.36,2.46-2.02,3.62c-0.99,1.77-1.92,3.46-2.79,5
		c-0.29,0.49-0.55,0.95-0.8,1.42c-0.39,0.73-0.79,1.42-1.17,2.09c-0.15,0.26-0.3,0.52-0.42,0.77c-0.21,0.39-0.42,0.76-0.64,1.12
		c-0.47,0.86-0.92,1.67-1.33,2.39c-0.45,0.79-0.85,1.5-1.2,2.12c-0.2,0.36-0.38,0.7-0.56,1c-0.11,0.18-0.2,0.36-0.29,0.53
		c-0.02,0-0.02,0-0.02,0.02c-0.08,0.15-0.14,0.27-0.21,0.39c-0.06,0.11-0.14,0.23-0.18,0.33l-0.02,0.02
		c-0.02,0.02-0.03,0.03-0.03,0.05c-0.05,0.08-0.09,0.15-0.14,0.23c0,0.02,0,0.02,0,0.02c-0.05,0.08-0.08,0.14-0.12,0.21
		c-0.03,0.08-0.06,0.14-0.09,0.18c-0.02,0.05-0.05,0.08-0.06,0.12c0,0.02,0,0.02,0,0.02l-49.41,88.4l-24.72,44.23h39.92
		c26.77,0,52.56-10.44,64.25-30.04l2.24-4.05l45.67-82l22.33-40.09l0.82-1.47l4.49,8.03c4.41,5.7,8.97,12.03,10.28,14.46
		c0.08,0.15,0.17,0.3,0.24,0.45c0.41,0.77,0.88,1.67,1.44,2.71c0.12,0.21,0.23,0.41,0.33,0.64c0.33,0.64,0.71,1.33,1.11,2.06
		c0,0,0,0,0,0.02c0.38,0.74,0.8,1.53,1.23,2.35c0.15,0.27,0.3,0.55,0.44,0.83c0.32,0.56,0.62,1.15,0.92,1.74
		c0.64,1.2,1.3,2.46,1.99,3.79c0.36,0.65,0.71,1.33,1.08,2.02c0.24,0.44,0.47,0.89,0.71,1.35c0.3,0.59,0.62,1.18,0.94,1.79
		c0.39,0.76,0.79,1.52,1.2,2.29c0.59,1.11,1.18,2.24,1.79,3.4c0.02,0.03,0.03,0.05,0.03,0.08c0.42,0.79,0.83,1.59,1.26,2.39
		c0.42,0.8,0.86,1.62,1.29,2.46c0.56,1.08,1.12,2.15,1.71,3.26c0.76,1.44,1.53,2.91,2.3,4.4c2.64,5.06,5.41,10.32,8.22,15.66
		c0.41,0.77,0.8,1.53,1.21,2.3c2.59,4.97,5.21,9.97,7.79,14.87c0.02,0.05,0.03,0.09,0.06,0.12c0.09,0.17,0.18,0.33,0.27,0.52
		l70.66,128.12c11.69,18.72,37.48,30.06,64.25,30.06h39.91L961.24,785.37z"/>
	<defs>
		<filter id="Adobe_OpacityMaskFilter" filterUnits="userSpaceOnUse" x="558.96" y="445.06" width="206.29" height="245.97">
			<feFlood  style="flood-color:white;flood-opacity:1" result="back"/>
			<feBlend  in="SourceGraphic" in2="back" mode="normal"/>
		</filter>
	</defs>
	<mask maskUnits="userSpaceOnUse" x="558.96" y="445.06" width="206.29" height="245.97" id="SVGID_2_">
		<g class="st1">
			<defs>
				<filter id="Adobe_OpacityMaskFilter_1_" filterUnits="userSpaceOnUse" x="558.96" y="445.06" width="206.29" height="245.97">
					<feFlood  style="flood-color:white;flood-opacity:1" result="back"/>
					<feBlend  in="SourceGraphic" in2="back" mode="normal"/>
				</filter>
			</defs>
			<mask maskUnits="userSpaceOnUse" x="558.96" y="445.06" width="206.29" height="245.97" id="SVGID_2_">
				<g class="st2">
				</g>
			</mask>
			<linearGradient id="SVGID_3_" gradientUnits="userSpaceOnUse" x1="694.7678" y1="504.8484" x2="649.8771" y2="612.6892">
				<stop  offset="0" style="stop-color:#FFFFFF"/>
				<stop  offset="1" style="stop-color:#000000"/>
			</linearGradient>
			<path class="st3" d="M765.25,475.62l-32.15,58.92l-22.05,40.41l-45.67,82l-2.24,4.05c-11.69,19.6-37.48,30.04-64.25,30.04h-39.92
				l24.72-44.23l49.41-88.4c0,0,0,0,0-0.02c0.02-0.05,0.05-0.08,0.06-0.12c0.03-0.05,0.06-0.11,0.09-0.18
				c0.05-0.08,0.08-0.14,0.12-0.21c0,0,0,0,0-0.02c0.05-0.08,0.09-0.15,0.14-0.23c0-0.02,0.02-0.03,0.03-0.05l0.02-0.02
				c0.11-0.21,0.24-0.45,0.39-0.73c0-0.02,0-0.02,0.02-0.02c0.09-0.17,0.18-0.35,0.29-0.53c0.18-0.3,0.36-0.64,0.56-1
				c0.35-0.62,0.74-1.33,1.2-2.12c0.39-0.73,0.85-1.53,1.33-2.39c0.2-0.36,0.41-0.73,0.64-1.12c0.12-0.26,0.27-0.52,0.42-0.77
				c0.36-0.67,0.76-1.36,1.17-2.09c0.26-0.47,0.52-0.94,0.8-1.42c0.85-1.55,1.79-3.23,2.79-5c0.65-1.17,1.32-2.38,2.02-3.62
				c0.38-0.67,0.74-1.33,1.14-2.02c1.52-2.73,3.15-5.64,4.87-8.72c0.47-0.83,0.92-1.67,1.41-2.52c0.64-1.15,1.29-2.3,1.96-3.49
				c3.29-5.9,6.84-12.25,10.55-18.87c0.36-0.67,0.74-1.33,1.12-2c0.83-1.53,1.7-3.08,2.56-4.62c0.65-1.17,1.3-2.33,1.97-3.5
				c3.47-6.23,7.03-12.6,10.61-19.01c1.17-2.06,2.32-4.14,3.49-6.21c0.39-0.71,0.79-1.41,1.18-2.12l2.36-4.23
				c2.35-4.23,4.7-8.43,7-12.57l1.03-1.82L765.25,475.62z"/>
		</g>
	</mask>
	<linearGradient id="SVGID_4_" gradientUnits="userSpaceOnUse" x1="694.7678" y1="504.8484" x2="649.8771" y2="612.6892">
		<stop  offset="0" style="stop-color:#936527"/>
		<stop  offset="1" style="stop-color:#FDF5A5"/>
	</linearGradient>
	<path class="st4" d="M765.25,475.62l-32.15,58.92l-22.05,40.41l-45.67,82l-2.24,4.05c-11.69,19.6-37.48,30.04-64.25,30.04h-39.92
		l24.72-44.23l49.41-88.4c0,0,0,0,0-0.02c0.02-0.05,0.05-0.08,0.06-0.12c0.03-0.05,0.06-0.11,0.09-0.18
		c0.05-0.08,0.08-0.14,0.12-0.21c0,0,0,0,0-0.02c0.05-0.08,0.09-0.15,0.14-0.23c0-0.02,0.02-0.03,0.03-0.05l0.02-0.02
		c0.11-0.21,0.24-0.45,0.39-0.73c0-0.02,0-0.02,0.02-0.02c0.09-0.17,0.18-0.35,0.29-0.53c0.18-0.3,0.36-0.64,0.56-1
		c0.35-0.62,0.74-1.33,1.2-2.12c0.39-0.73,0.85-1.53,1.33-2.39c0.2-0.36,0.41-0.73,0.64-1.12c0.12-0.26,0.27-0.52,0.42-0.77
		c0.36-0.67,0.76-1.36,1.17-2.09c0.26-0.47,0.52-0.94,0.8-1.42c0.85-1.55,1.79-3.23,2.79-5c0.65-1.17,1.32-2.38,2.02-3.62
		c0.38-0.67,0.74-1.33,1.14-2.02c1.52-2.73,3.15-5.64,4.87-8.72c0.47-0.83,0.92-1.67,1.41-2.52c0.64-1.15,1.29-2.3,1.96-3.49
		c3.29-5.9,6.84-12.25,10.55-18.87c0.36-0.67,0.74-1.33,1.12-2c0.83-1.53,1.7-3.08,2.56-4.62c0.65-1.17,1.3-2.33,1.97-3.5
		c3.47-6.23,7.03-12.6,10.61-19.01c1.17-2.06,2.32-4.14,3.49-6.21c0.39-0.71,0.79-1.41,1.18-2.12l2.36-4.23
		c2.35-4.23,4.7-8.43,7-12.57l1.03-1.82L765.25,475.62z"/>
	<linearGradient id="SVGID_5_" gradientUnits="userSpaceOnUse" x1="873.9005" y1="789.3562" x2="871.9135" y2="792.9073">
		<stop  offset="0" style="stop-color:#936527"/>
		<stop  offset="1" style="stop-color:#FDF5A5"/>
	</linearGradient>
	<path class="st5" d="M876.75,793.46c-0.02-0.05-0.05-0.08-0.06-0.13c-0.2-0.37-0.4-0.73-0.6-1.1c-2.78-0.32-5.55-0.69-8.33-1.09
		c1.25,0.32,2.5,0.64,3.75,0.96C872.21,792.28,876.38,792.78,876.75,793.46z"/>
	<linearGradient id="SVGID_6_" gradientUnits="userSpaceOnUse" x1="673.4921" y1="658.6907" x2="673.2598" y2="659.1059">
		<stop  offset="0" style="stop-color:#936527"/>
		<stop  offset="1" style="stop-color:#FDF5A5"/>
	</linearGradient>
	<path class="st6" d="M673.1,658.93c-0.16-0.04-0.32-0.08-0.49-0.13c0.47,0.12,0.95,0.25,1.42,0.38
		C673.72,659.1,673.41,659.02,673.1,658.93z"/>
	<linearGradient id="SVGID_7_" gradientUnits="userSpaceOnUse" x1="668.8225" y1="657.3116" x2="668.4805" y2="657.9229">
		<stop  offset="0" style="stop-color:#936527"/>
		<stop  offset="1" style="stop-color:#FDF5A5"/>
	</linearGradient>
	<path class="st7" d="M667.56,657.5c0.68,0.17,1.35,0.35,2.03,0.52C668.91,657.85,668.23,657.67,667.56,657.5z"/>
	<linearGradient id="SVGID_8_" gradientUnits="userSpaceOnUse" x1="565.7625" y1="622.3917" x2="1017.8267" y2="776.9933">
		<stop  offset="0" style="stop-color:#936527"/>
		<stop  offset="1" style="stop-color:#FDF5A5"/>
	</linearGradient>
	<path class="st8" d="M669.58,658.02c1.01,0.26,2.01,0.52,3.03,0.79C671.6,658.54,670.59,658.28,669.58,658.02z"/>
	<linearGradient id="SVGID_9_" gradientUnits="userSpaceOnUse" x1="633.6254" y1="557.0557" x2="633.7704" y2="557.221">
		<stop  offset="0" style="stop-color:#936527"/>
		<stop  offset="1" style="stop-color:#FDF5A5"/>
	</linearGradient>
	<path class="st9" d="M633.94,556.84c0-0.02,0-0.02,0.02-0.02c-0.08,0.14-0.15,0.27-0.23,0.41c-0.06,0.11-0.14,0.23-0.18,0.33
		C633.65,557.36,633.79,557.12,633.94,556.84z"/>
	<linearGradient id="SVGID_10_" gradientUnits="userSpaceOnUse" x1="622.592" y1="397.0092" x2="846.0117" y2="651.9033">
		<stop  offset="0" style="stop-color:#936527"/>
		<stop  offset="1" style="stop-color:#FDF5A5"/>
	</linearGradient>
	<path class="st10" d="M961.26,785.37h-0.01c-0.18,0.06-0.38,0.12-0.56,0.17c-29.48,8.75-55.73,12.41-83.29,9.22
		c-4.18-7.62-78.8-144.43-90.88-167.39c-0.09-0.18-0.18-0.35-0.27-0.52c-0.03-0.03-0.05-0.08-0.06-0.12
		c-2.58-4.9-5.2-9.9-7.79-14.87c-0.41-0.77-0.8-1.53-1.21-2.3c-2.79-5.34-5.56-10.61-8.22-15.66c-0.77-1.49-1.55-2.96-2.3-4.4
		c-0.58-1.11-1.14-2.18-1.71-3.26c-0.42-0.83-0.86-1.65-1.29-2.46c-0.42-0.8-0.83-1.61-1.26-2.39c0-0.03-0.02-0.05-0.03-0.08
		c-0.61-1.15-1.2-2.29-1.79-3.4c-0.41-0.77-0.8-1.53-1.2-2.29c-0.32-0.61-0.64-1.2-0.94-1.79c-0.24-0.45-0.47-0.91-0.71-1.35
		c-0.36-0.68-0.71-1.36-1.08-2.02c-0.68-1.33-1.35-2.59-1.99-3.79c-0.3-0.59-0.61-1.18-0.92-1.74c-0.14-0.29-0.29-0.56-0.44-0.83
		c-0.42-0.83-0.83-1.61-1.23-2.35c0-0.02,0-0.02,0-0.02c-0.39-0.73-0.76-1.42-1.11-2.06c-0.11-0.23-0.21-0.42-0.33-0.64
		c-0.55-1.03-1.03-1.94-1.44-2.71c-0.08-0.15-0.17-0.3-0.24-0.45c-1.3-2.43-5.87-8.76-10.28-14.46c-1.88-2.41-3.73-4.73-5.3-6.56
		l-0.27-0.32c-1.23-1.45-2.26-2.59-2.96-3.23c-5.94-5.4-13.35-8.93-20.96-11.31c-9.73-3.02-20.2-3.67-30.07-0.88
		c-18.58,5.26-35.38,21.08-45.15,37.71c0.09-0.17,0.18-0.35,0.29-0.53c0.18-0.3,0.36-0.64,0.56-1c0.35-0.62,0.74-1.33,1.2-2.12
		c0.39-0.73,0.85-1.53,1.33-2.39c0.2-0.36,0.41-0.73,0.64-1.12c0.12-0.26,0.27-0.52,0.42-0.77c0.36-0.67,0.76-1.36,1.17-2.09
		c0.26-0.47,0.52-0.94,0.8-1.42c0.85-1.55,1.79-3.23,2.79-5c0.65-1.17,1.32-2.38,2.02-3.62c0.38-0.67,0.74-1.33,1.14-2.02
		c1.52-2.73,3.15-5.64,4.87-8.72c0.47-0.83,0.92-1.67,1.41-2.52c0.64-1.15,1.29-2.3,1.96-3.49c3.29-5.9,6.84-12.25,10.55-18.87
		c0.36-0.67,0.74-1.33,1.12-2c0.83-1.53,1.7-3.08,2.56-4.62c0.65-1.17,1.3-2.33,1.97-3.5c3.47-6.23,7.03-12.6,10.61-19.01
		c1.17-2.06,2.32-4.14,3.49-6.21c0.39-0.71,0.79-1.41,1.18-2.12l2.36-4.23c2.35-4.23,4.7-8.43,7-12.57l1.03-1.82l1.29-2.29
		c1.24-2.21,2.46-4.41,3.67-6.58c9.79-17.52,18.57-33.22,24.57-43.97c0.24-0.44,0.48-0.85,0.7-1.26c4.5-8.05,7.29-13.04,7.53-13.47
		c0.02-0.01,0.02-0.01,0.02-0.01l115.68,206.98l108.9,196.48L961.26,785.37z"/>
	<defs>
		<filter id="Adobe_OpacityMaskFilter_2_" filterUnits="userSpaceOnUse" x="777.61" y="582.63" width="183.73" height="211.78">
			<feFlood  style="flood-color:white;flood-opacity:1" result="back"/>
			<feBlend  in="SourceGraphic" in2="back" mode="normal"/>
		</filter>
	</defs>
	<mask maskUnits="userSpaceOnUse" x="777.61" y="582.63" width="183.73" height="211.78" id="SVGID_11_">
		<g class="st11">
			<defs>
				<filter id="Adobe_OpacityMaskFilter_3_" filterUnits="userSpaceOnUse" x="777.61" y="582.63" width="183.73" height="211.78">
					<feFlood  style="flood-color:white;flood-opacity:1" result="back"/>
					<feBlend  in="SourceGraphic" in2="back" mode="normal"/>
				</filter>
			</defs>
			<mask maskUnits="userSpaceOnUse" x="777.61" y="582.63" width="183.73" height="211.78" id="SVGID_11_">
				<g class="st12">
				</g>
			</mask>
			<linearGradient id="SVGID_12_" gradientUnits="userSpaceOnUse" x1="907.0873" y1="783.5214" x2="820.4017" y2="585.899">
				<stop  offset="0" style="stop-color:#FFFFFF"/>
				<stop  offset="1" style="stop-color:#000000"/>
			</linearGradient>
			<path class="st13" d="M961.34,785.53c-29.71,8.87-56.99,10.59-84.72,7.38c-4.21-7.68-79.98-146.59-91.15-167.9
				c-0.03-0.03-0.05-0.08-0.06-0.12c-2.58-4.9-5.2-9.9-7.79-14.87c1.24-0.27,60.75-13.25,71.48-27.39l108.9,196.47L961.34,785.53z"
				/>
		</g>
	</mask>
	<linearGradient id="SVGID_13_" gradientUnits="userSpaceOnUse" x1="907.0873" y1="783.5214" x2="820.4017" y2="585.899">
		<stop  offset="0" style="stop-color:#936527"/>
		<stop  offset="1" style="stop-color:#FDF5A5"/>
	</linearGradient>
	<path class="st14" d="M961.34,785.53c-29.71,8.87-56.99,10.59-84.72,7.38c-4.21-7.68-79.98-146.59-91.15-167.9
		c-0.03-0.03-0.05-0.08-0.06-0.12c-2.58-4.9-5.2-9.9-7.79-14.87c1.24-0.27,60.75-13.25,71.48-27.39l108.9,196.47L961.34,785.53z"/>
	
		<linearGradient id="SVGID_14_" gradientUnits="userSpaceOnUse" x1="-790.9509" y1="-747.4851" x2="-22.2558" y2="-666.5698" gradientTransform="matrix(0.9203 0.3911 -0.3911 0.9203 861.589 1549.9788)">
		<stop  offset="0" style="stop-color:#936527"/>
		<stop  offset="1" style="stop-color:#FDF5A5"/>
	</linearGradient>
	<path class="st15" d="M867.72,755.5c-2.47-1.44-4.88-2.97-7.24-4.62c-4.52-3.16-9.05-6.3-13.55-9.49
		c-27.64-19.64-54.42-40.48-80.5-62.13c-13.91-11.55-27.87-23.04-42.12-34.17c-0.45-0.35-0.9-0.7-1.35-1.05
		c-0.96-0.75-1.92-1.48-2.88-2.21c-0.64-0.49-1.29-0.98-1.93-1.48c-41.37-31.32-77.62-47.58-105.98-55.88
		c-1.56-0.37-3.12-0.72-4.7-1.05c-19.3-4-40.52-8.39-60.33-6.37l13.22,129.5c141.59-35.52,254.65,144.97,401.06,79.5l0.04,0.02
		c0,0-0.02-0.21-0.02-0.21c-16.24-1.82-32.12-6.03-47.54-11.35C898.21,769.11,882.11,763.9,867.72,755.5z"/>
	
		<linearGradient id="SVGID_15_" gradientUnits="userSpaceOnUse" x1="-703.6746" y1="-768.0294" x2="-390.8018" y2="-748.2501" gradientTransform="matrix(0.9203 0.3911 -0.3911 0.9203 861.589 1549.9788)">
		<stop  offset="0" style="stop-color:#936527"/>
		<stop  offset="1" style="stop-color:#FDF5A5"/>
	</linearGradient>
	<path class="st16" d="M913.9,774.52c13.02,4.48,26.36,8.18,39.97,10.33c-13.61-0.52-27.13-2.6-40.46-5.49
		c-16.23-3.49-32.82-6.76-48.1-13.39c-2.63-1.14-5.21-2.37-7.75-3.73c-4.87-2.59-9.74-5.17-14.57-7.8
		c-29.78-16.21-58.84-33.73-87.33-52.13c-15.17-9.81-30.41-19.56-45.88-28.93c-0.49-0.29-0.98-0.59-1.47-0.87
		c-1.03-0.63-2.07-1.24-3.11-1.86c-0.7-0.41-1.39-0.82-2.1-1.24c-44.79-26.17-82.72-38.03-111.87-42.9
		c-1.59-0.18-3.18-0.34-4.78-0.46c-11.11-0.95-22.85-1.96-34.49-1.86l-4.82-47.14c19.8-2.03,41.02,2.36,60.33,6.36
		c1.56,0.34,3.13,0.68,4.68,1.05c28.37,8.29,64.63,24.56,105.99,55.87c0.63,0.5,1.28,0.99,1.93,1.49c0.95,0.73,1.9,1.46,2.87,2.2
		c0.46,0.37,0.9,0.71,1.35,1.05c14.24,11.14,28.2,22.62,42.12,34.18c26.09,21.65,52.86,42.49,80.5,62.12
		c4.5,3.19,9.03,6.34,13.55,9.49c2.36,1.65,4.76,3.19,7.24,4.63C882.1,763.91,898.2,769.11,913.9,774.52z"/>
	<defs>
		<filter id="Adobe_OpacityMaskFilter_4_" filterUnits="userSpaceOnUse" x="546.43" y="578.71" width="406.71" height="207.85">
			<feFlood  style="flood-color:white;flood-opacity:1" result="back"/>
			<feBlend  in="SourceGraphic" in2="back" mode="normal"/>
		</filter>
	</defs>
	<mask maskUnits="userSpaceOnUse" x="546.43" y="578.71" width="406.71" height="207.85" id="SVGID_16_">
		<g class="st17">
			<defs>
				<filter id="Adobe_OpacityMaskFilter_5_" filterUnits="userSpaceOnUse" x="546.43" y="578.71" width="406.71" height="207.85">
					<feFlood  style="flood-color:white;flood-opacity:1" result="back"/>
					<feBlend  in="SourceGraphic" in2="back" mode="normal"/>
				</filter>
			</defs>
			<mask maskUnits="userSpaceOnUse" x="546.43" y="578.71" width="406.71" height="207.85" id="SVGID_16_">
				<g class="st18">
				</g>
			</mask>
			<linearGradient id="SVGID_17_" gradientUnits="userSpaceOnUse" x1="992.6633" y1="759.013" x2="631.9896" y2="651.6882">
				<stop  offset="0" style="stop-color:#000000"/>
				<stop  offset="1" style="stop-color:#FFFFFF"/>
			</linearGradient>
			<path class="st19" d="M953.14,786.57c-13.61-0.52-27.13-2.6-40.46-5.49c-16.23-3.49-32.82-6.76-48.1-13.39
				c-2.63-1.14-5.21-2.37-7.75-3.73c-4.87-2.59-9.74-5.17-14.57-7.8c-29.78-16.22-58.84-33.73-87.33-52.13
				c-15.17-9.81-30.41-19.56-45.88-28.93c-0.49-0.29-0.97-0.59-1.47-0.87c-1.03-0.63-2.07-1.24-3.11-1.86
				c-0.7-0.41-1.39-0.82-2.1-1.23c-44.79-26.17-82.72-38.03-111.87-42.9c-1.59-0.18-3.18-0.34-4.78-0.46
				c-11.11-0.95-22.85-1.96-34.49-1.86l-4.82-47.14c0.28-0.03,0.58-0.06,0.87-0.07l4.65,45.55c11.64-0.1,23.37,0.9,34.49,1.86
				c1.59,0.12,3.19,0.28,4.78,0.46c29.15,4.87,67.08,16.72,111.87,42.9c0.7,0.41,1.39,0.82,2.1,1.24c1.04,0.61,2.08,1.23,3.11,1.86
				c0.49,0.29,0.97,0.59,1.47,0.87c15.47,9.37,30.71,19.12,45.88,28.93c28.49,18.4,57.54,35.92,87.33,52.13
				c4.83,2.63,9.7,5.21,14.57,7.8c2.54,1.37,5.11,2.59,7.75,3.73c15.28,6.63,31.87,9.89,48.1,13.39c8.39,1.82,16.86,3.32,25.38,4.3
				C943.52,784.85,948.31,785.79,953.14,786.57z"/>
		</g>
	</mask>
	<linearGradient id="SVGID_18_" gradientUnits="userSpaceOnUse" x1="992.6633" y1="759.013" x2="631.9896" y2="651.6882">
		<stop  offset="0" style="stop-color:#936527"/>
		<stop  offset="1" style="stop-color:#FDF5A5"/>
	</linearGradient>
	<path class="st20" d="M953.14,786.57c-13.61-0.52-27.13-2.6-40.46-5.49c-16.23-3.49-32.82-6.76-48.1-13.39
		c-2.63-1.14-5.21-2.37-7.75-3.73c-4.87-2.59-9.74-5.17-14.57-7.8c-29.78-16.22-58.84-33.73-87.33-52.13
		c-15.17-9.81-30.41-19.56-45.88-28.93c-0.49-0.29-0.97-0.59-1.47-0.87c-1.03-0.63-2.07-1.24-3.11-1.86
		c-0.7-0.41-1.39-0.82-2.1-1.23c-44.79-26.17-82.72-38.03-111.87-42.9c-1.59-0.18-3.18-0.34-4.78-0.46
		c-11.11-0.95-22.85-1.96-34.49-1.86l-4.82-47.14c0.28-0.03,0.58-0.06,0.87-0.07l4.65,45.55c11.64-0.1,23.37,0.9,34.49,1.86
		c1.59,0.12,3.19,0.28,4.78,0.46c29.15,4.87,67.08,16.72,111.87,42.9c0.7,0.41,1.39,0.82,2.1,1.24c1.04,0.61,2.08,1.23,3.11,1.86
		c0.49,0.29,0.97,0.59,1.47,0.87c15.47,9.37,30.71,19.12,45.88,28.93c28.49,18.4,57.54,35.92,87.33,52.13
		c4.83,2.63,9.7,5.21,14.57,7.8c2.54,1.37,5.11,2.59,7.75,3.73c15.28,6.63,31.87,9.89,48.1,13.39c8.39,1.82,16.86,3.32,25.38,4.3
		C943.52,784.85,948.31,785.79,953.14,786.57z"/>
	
		<linearGradient id="SVGID_19_" gradientUnits="userSpaceOnUse" x1="-655.0059" y1="-784.6445" x2="-225.2549" y2="-739.6914" gradientTransform="matrix(0.9203 0.3911 -0.3911 0.9203 861.589 1549.9788)">
		<stop  offset="0" style="stop-color:#936527"/>
		<stop  offset="1" style="stop-color:#FDF5A5"/>
	</linearGradient>
	<path class="st21" d="M961.48,786.08l-0.05-0.02c-1.51,0.68-3.03,1.33-4.54,1.95c-15.86-1.88-31.34-6.01-46.41-11.21
		c-15.7-5.41-31.8-10.61-46.19-19.02c-2.47-1.43-4.88-2.97-7.24-4.62c-4.52-3.14-9.05-6.3-13.53-9.48
		c-27.66-19.64-54.43-40.46-80.51-62.13c-13.91-11.56-27.88-23.04-42.12-34.16c-0.44-0.36-0.89-0.7-1.35-1.05
		c-0.96-0.75-1.91-1.48-2.87-2.21c-0.65-0.5-1.28-0.99-1.94-1.47c-41.36-31.32-77.63-47.59-105.97-55.88
		c-1.56-0.38-3.14-0.72-4.7-1.04c-18.12-3.76-37.96-7.87-56.7-6.67l-0.2-2c19.8-2.03,41.02,2.38,60.32,6.37
		c1.58,0.33,3.13,0.68,4.7,1.04c28.34,8.3,64.6,24.57,105.97,55.88c0.65,0.49,1.28,0.99,1.94,1.47c0.95,0.73,1.9,1.46,2.87,2.21
		c0.46,0.35,0.9,0.71,1.35,1.05c14.25,11.12,28.2,22.62,42.12,34.16c26.09,21.67,52.86,42.49,80.51,62.14
		c4.5,3.19,9.02,6.32,13.55,9.49c2.35,1.63,4.77,3.18,7.24,4.61c14.37,8.4,30.49,13.61,46.17,19.01
		c15.43,5.33,31.3,9.53,47.55,11.35L961.48,786.08z"/>
</g>
<g>
	<path class="st22" d="M549.48,846.93l-15.67,39.63h12.15l3.06-8.38h13.84l2.51,8.38h13.08l-14.99-39.63H549.48z M551.14,870.54
		l5.1-15.55h0.13l4.12,15.55H551.14z"/>
	<path class="st22" d="M623.58,856.31c-5.01,0-8.24,1.89-10.57,4.96c-2.12-3.99-5.86-4.96-9.6-4.96c-6.92,0-9.3,4.03-9.94,5.6h-0.17
		c0-1.6-0.08-3.71-0.26-4.92h-11.42c0.21,0.96,0.38,3.42,0.38,6.35v23.22h12.19v-16.23c0-3.07,1.36-5.74,4.37-5.74
		c2.34,0,3.36,1.39,3.36,4.21v17.76h12.1v-17.05c0-2.25,0.76-4.92,4.29-4.92c2.42,0,3.44,1.39,3.44,4.21v17.76h12.15v-21.22
		C633.9,858.99,629.27,856.31,623.58,856.31z"/>
	<path class="st22" d="M652.12,861.91h-0.17c0-1.6-0.08-3.71-0.25-4.92h-11.42c0.21,1.36,0.38,4.39,0.38,8.56v21.01h12.19v-14.7
		c0-3.92,2.72-6.81,6.62-6.81c1.4,0,3.1,0.18,3.61,0.36v-8.92c-0.72-0.14-1.1-0.18-2-0.18
		C655.26,856.31,653.09,859.59,652.12,861.91z"/>
	<polygon class="st22" points="708.72,871.83 708.59,871.83 702.31,846.93 683.58,846.93 683.58,886.56 694.66,886.56 
		694.66,856.49 694.79,856.49 704.35,886.56 712.2,886.56 722.4,856.49 722.52,856.49 722.52,886.56 733.86,886.56 733.86,846.93 
		715.6,846.93 	"/>
	<path class="st22" d="M758.11,856.31c-12.83,0-17.5,7.46-17.5,15.52c0,8.03,4.67,15.41,17.5,15.41c12.82,0,17.5-7.38,17.5-15.41
		C775.6,863.77,770.93,856.31,758.11,856.31z M758.11,880.32c-4.12,0-4.8-4.21-4.8-8.49c0-4.32,0.68-8.6,4.8-8.6
		c4.12,0,4.8,4.28,4.8,8.6C762.91,876.11,762.23,880.32,758.11,880.32z"/>
	<path class="st22" d="M802.82,856.31c-4.16,0-7.26,1.43-9.3,4.42h-0.17c0.13-1.07,0.25-2.43,0.25-3.64v-13.09h-12.19v42.55h12.19
		v-16.23c0-3.07,1.36-5.74,4.37-5.74c2.34,0,3.36,1.39,3.36,4.21v17.76h12.1v-20.72C813.44,859.31,808.81,856.31,802.82,856.31z"/>
	<path class="st22" d="M851.02,867.26c0-6.06-2.42-10.95-14.78-10.95c-5.9,0-10.32,1.03-13.21,1.93l0.42,7.31
		c2.59-1.36,6.33-2.75,10.15-2.75c4.76,0,6.62,2.14,6.62,4v0.93h-3.14c-12.19,0-18.09,3.5-18.09,10.09c0,5.67,4.46,9.42,10.66,9.42
		c4.25,0,7.05-1.5,10.57-4.74c0,1.36,0.25,2.71,0.38,4.07h10.83c-0.26-1.75-0.42-4.17-0.42-6.53V867.26z M840.23,873.22
		c0,2.78-0.64,7.56-6.24,7.56c-2.51,0-4.2-1.03-4.2-3.64c0-3.46,3.61-4.89,9-4.89h1.44V873.22z"/>
	<path class="st22" d="M899.34,856.31c-5.01,0-8.24,1.89-10.57,4.96c-2.12-3.99-5.86-4.96-9.6-4.96c-6.92,0-9.3,4.03-9.94,5.6h-0.17
		c0-1.6-0.08-3.71-0.25-4.92h-11.42c0.21,0.96,0.38,3.42,0.38,6.35v23.22h12.19v-16.23c0-3.07,1.36-5.74,4.37-5.74
		c2.34,0,3.36,1.39,3.36,4.21v17.76h12.1v-17.05c0-2.25,0.76-4.92,4.29-4.92c2.42,0,3.44,1.39,3.44,4.21v17.76h12.14v-21.22
		C909.66,858.99,905.04,856.31,899.34,856.31z"/>
	<path class="st22" d="M931.91,856.31c-10.62,0-16.35,7.24-16.35,15.3c0,7.63,4.12,15.69,18.39,15.62
		c4.88-0.04,9.38-0.89,12.27-1.71l-0.3-7.1c-2.93,1.11-6.92,2.35-10.23,2.35c-4.54,0-8.45-1.43-8.79-6.21h21.23v-2.89
		C948.14,863.66,942.91,856.31,931.91,856.31z M937.05,869.26h-10.4c0-4.1,2-6.71,5.48-6.71c3.61,0,4.93,1.86,4.93,5.85V869.26z"/>
	<path class="st22" d="M987.25,881.35v-37.34H975.1v12.02c0,2.21,0.13,4.03,0.3,5.28h-0.17c-2.51-3.39-5.05-4.99-9.72-4.99
		c-8.79,0-12.57,7.85-12.57,14.77c0,8.95,3.91,15.91,13.16,15.91c3.69,0,6.79-1.25,9.34-5.21h0.13c0,1.6,0.21,3.21,0.34,4.78h11.59
		C987.37,884.81,987.25,883.1,987.25,881.35z M970.39,879.85c-3.61,0-4.76-3.42-4.76-8.35c0-4.92,1.15-8.28,4.76-8.28
		c3.02,0,4.71,3.35,4.71,8.28C975.1,876.43,973.4,879.85,970.39,879.85z"/>
</g>
<g>
	<polygon class="st22" points="615.97,938.77 615.87,938.77 612.78,920.51 602.38,920.51 599.04,938.77 598.91,938.77 
		595.64,920.51 586.31,920.51 593.41,946.88 603.46,946.88 607.22,928.11 607.34,928.11 611.03,946.88 620.83,946.88 627.9,920.51 
		619.21,920.51 	"/>
	<path class="st22" d="M642.31,919.9c-7.95,0-12.25,6.46-12.25,13.65c0,6.81,3.09,14,13.78,13.93c3.66-0.03,7.03-0.79,9.19-1.53
		l-0.22-6.33c-2.2,0.99-5.19,2.1-7.67,2.1c-3.4,0-6.33-1.27-6.59-5.54h15.91v-2.58C654.46,926.46,650.55,919.9,642.31,919.9z
		 M646.16,931.45h-7.79c0-3.66,1.5-5.98,4.1-5.98c2.7,0,3.69,1.65,3.69,5.22V931.45z"/>
	<path class="st22" d="M675.18,919.9c-3.5,0-5.41,1.43-7.29,4.45h-0.1c0.1-1.11,0.19-2.74,0.19-4.71v-10.72h-9.13v33.31
		c0,1.56-0.1,3.09-0.19,4.64h8.69c0.13-1.4,0.29-2.83,0.29-4.26h0.1c1.94,3.53,4.26,4.64,6.97,4.64c6.94,0,9.89-6.2,9.89-14.19
		C684.59,926.9,681.76,919.9,675.18,919.9z M671.52,940.9c-2.29,0-3.53-3.05-3.53-7.44s1.24-7.38,3.53-7.38
		c2.7,0,3.56,2.99,3.56,7.38S674.22,940.9,671.52,940.9z"/>
	<path class="st22" d="M724.59,908.93h-9.1v10.72c0,1.97,0.1,3.59,0.22,4.71h-0.13c-1.88-3.02-3.79-4.45-7.29-4.45
		c-6.59,0-9.42,7-9.42,13.17c0,7.99,2.93,14.19,9.86,14.19c2.77,0,5.09-1.11,7-4.64h0.1c0,1.43,0.16,2.86,0.25,4.26h8.69
		c-0.1-1.56-0.19-3.09-0.19-4.64V908.93z M711.96,940.9c-2.7,0-3.56-3.05-3.56-7.44s0.86-7.38,3.56-7.38c2.26,0,3.53,2.99,3.53,7.38
		S714.22,940.9,711.96,940.9z"/>
	<path class="st22" d="M741.23,919.9c-7.95,0-12.25,6.46-12.25,13.65c0,6.81,3.09,14,13.78,13.93c3.66-0.03,7.03-0.79,9.19-1.53
		l-0.22-6.33c-2.2,0.99-5.19,2.1-7.67,2.1c-3.4,0-6.33-1.27-6.59-5.54h15.91v-2.58C753.38,926.46,749.47,919.9,741.23,919.9z
		 M745.08,931.45h-7.79c0-3.66,1.5-5.98,4.1-5.98c2.7,0,3.69,1.65,3.69,5.22V931.45z"/>
	<polygon class="st22" points="769.74,938.58 769.64,938.58 765.06,920.51 755.55,920.51 763.85,946.88 774.63,946.88 783.1,920.51 
		774.19,920.51 	"/>
	<path class="st22" d="M797.54,919.9c-7.95,0-12.25,6.46-12.25,13.65c0,6.81,3.09,14,13.78,13.93c3.66-0.03,7.03-0.79,9.2-1.53
		l-0.22-6.33c-2.19,0.99-5.19,2.1-7.67,2.1c-3.4,0-6.33-1.27-6.59-5.54h15.91v-2.58C809.7,926.46,805.78,919.9,797.54,919.9z
		 M801.39,931.45h-7.79c0-3.66,1.5-5.98,4.1-5.98c2.7,0,3.69,1.65,3.69,5.22V931.45z"/>
	<rect x="814.5" y="908.93" class="st22" width="9.1" height="37.96"/>
	<path class="st22" d="M841.54,919.9c-9.61,0-13.11,6.65-13.11,13.84c0,7.16,3.5,13.74,13.11,13.74c9.61,0,13.11-6.59,13.11-13.74
		C854.65,926.55,851.15,919.9,841.54,919.9z M841.54,941.31c-3.09,0-3.59-3.75-3.59-7.57c0-3.85,0.51-7.67,3.59-7.67
		s3.6,3.82,3.6,7.67C845.14,937.56,844.63,941.31,841.54,941.31z"/>
	<path class="st22" d="M874.86,919.9c-2.71,0-5.03,1.11-6.97,4.68h-0.1c0-1.43-0.16-2.86-0.29-4.07h-8.78
		c0.16,0.73,0.29,2.39,0.29,4.36v32.93h9.13v-10.24c0-1.97-0.1-3.59-0.19-4.71h0.1c1.88,3.02,3.79,4.42,7.29,4.42
		c6.59,0,9.42-6.97,9.42-13.14C884.75,926.14,881.79,919.9,874.86,919.9z M871.68,941.12c-2.29,0-3.53-2.99-3.53-7.38
		c0-4.42,1.4-7.48,3.85-7.48c2.39,0,3.25,3.05,3.25,7.48C875.24,938.13,874.38,941.12,871.68,941.12z"/>
	<path class="st22" d="M900.56,919.9c-7.95,0-12.25,6.46-12.25,13.65c0,6.81,3.09,14,13.78,13.93c3.66-0.03,7.03-0.79,9.2-1.53
		l-0.22-6.33c-2.19,0.99-5.19,2.1-7.67,2.1c-3.4,0-6.33-1.27-6.59-5.54h15.91v-2.58C912.72,926.46,908.8,919.9,900.56,919.9z
		 M904.41,931.45h-7.79c0-3.66,1.5-5.98,4.1-5.98c2.7,0,3.69,1.65,3.69,5.22V931.45z"/>
	<path class="st22" d="M932.41,919.9c-4.36,0-5.98,2.93-6.71,5h-0.13c0-1.43-0.06-3.31-0.19-4.39h-8.56
		c0.16,1.21,0.29,3.91,0.29,7.63v18.74h9.13v-13.11c0-3.5,2.04-6.08,4.96-6.08c1.05,0,2.32,0.16,2.7,0.32v-7.95
		C933.37,919.93,933.08,919.9,932.41,919.9z"/>
</g>
</svg>
